<?xml version="1.0" encoding="utf-8"?><svg version="1.1" id="Layer_1" xmlns="http://www.w3.org/2000/svg" xmlns:xlink="http://www.w3.org/1999/xlink" x="0px" y="0px" viewBox="0 0 89.15 125.85" style="enable-background:new 0 0 89.15 125.85" xml:space="preserve"><style type="text/css">.st0{fill-rule:evenodd;clip-rule:evenodd;fill:#F08B33;} .st1{fill:none;stroke:#1A1A1A;stroke-width:2.9692;stroke-linecap:round;stroke-linejoin:round;stroke-miterlimit:22.9256;}</style><g><path class="st0" d="M30.2,29.81C45.88,13.85,64.65,4.46,86.43,1.48c1.7,22.44,2.18,44.37-2.09,64.29 c-4.92,22.97-16.21,42.51-37.53,53.8c-10.9,5.78-21.59,6.35-32.14,1.6C6.69,114.13,2.36,105.23,1.62,94.5 C-0.04,70.56,13.9,46.4,30.2,29.81L30.2,29.81z"/><path class="st1" d="M30.2,29.81C45.88,13.85,64.65,4.46,86.43,1.48c1.7,22.44,2.18,44.37-2.09,64.29 c-4.92,22.97-16.21,42.51-37.53,53.8c-10.9,5.78-21.59,6.35-32.14,1.6C6.69,114.13,2.36,105.23,1.62,94.5 C-0.04,70.56,13.9,46.4,30.2,29.81L30.2,29.81z M86.43,1.48C48.06,21.17,8.56,72,14.34,118.79 M75.84,56.03 c-7.6,22.29-17.82,42.94-38.61,56.96 M54.65,77.19c-4.08,8.61-9.5,16.59-16.7,23.75 M65.38,35.08 c-18.61,27.93-35.7,56.54-50.7,86.1"/></g></svg>