<?xml version="1.0" encoding="UTF-8" standalone="no"?> <svg width="96" height="96" viewBox="0 0 96 96" fill="none" xmlns="http://www.w3.org/2000/svg">
<path d="M54.8313 79.7386C48.9772 82.8586 43.1773 81.0386 41.0091 79.7386C41.6596 72.8053 32.6074 56.6275 28 49.4053L34.5046 46.3719C34.7935 52.8403 39.9432 62.2627 42.7037 65.4992C43.1288 65.9975 43.8509 65.812 44.0006 65.1745C45.4867 58.8485 42.7077 45.0822 41.8222 41.1719H55.1661C52.1061 50.8209 50.9689 61.076 51.0456 66.1552C51.0598 67.095 52.0905 67.2378 52.5204 66.4019C55.8479 59.9322 63.6905 47.4458 66.6209 45.0719L69.4666 50.7053C57.7584 56.9453 54.8313 72.6608 54.8313 79.7386Z" fill="#C2E684"/>
<path fill-rule="evenodd" clip-rule="evenodd" d="M39.9807 81.4539C39.3204 81.058 38.946 80.3183 39.0179 79.5518C39.1416 78.2328 38.8022 76.2381 37.993 73.6964C37.2011 71.2086 36.0268 68.3994 34.6692 65.5374C31.9552 59.8154 28.5839 54.0392 26.3139 50.4809C26.004 49.9952 25.9187 49.3994 26.0797 48.8462C26.2408 48.293 26.6326 47.8362 27.1547 47.5927L33.6593 44.5593C34.2643 44.2772 34.9703 44.3155 35.5412 44.6616C36.1122 45.0076 36.4728 45.6157 36.5026 46.2827C36.6294 49.1216 37.8565 52.8087 39.489 56.3004C40.4344 58.3222 41.4692 60.181 42.4104 61.6645C42.5065 59.0565 42.248 55.8055 41.8178 52.5276C41.2086 47.8864 40.3058 43.531 39.8716 41.6137C39.7373 41.0206 39.8801 40.3987 40.2596 39.9236C40.6391 39.4486 41.2142 39.1719 41.8222 39.1719H55.1661C55.8039 39.1719 56.4034 39.4761 56.78 39.9907C57.1567 40.5053 57.2653 41.1686 57.0726 41.7765C54.9259 48.5453 53.7506 55.6178 53.2835 60.8714C54.7243 58.3802 56.3941 55.6517 58.0418 53.1123C59.4275 50.9769 60.8125 48.9521 62.0471 47.2995C63.24 45.7025 64.4122 44.2872 65.3619 43.5179C65.8318 43.1373 66.4486 42.9896 67.0399 43.1163C67.6312 43.243 68.1334 43.6304 68.406 44.1701L71.2518 49.8035C71.7421 50.7742 71.367 51.9588 70.4073 52.4703C65.1219 55.2871 61.7147 60.3016 59.6202 65.6384C57.5265 70.9732 56.8313 76.4201 56.8313 79.7386C56.8313 80.4774 56.424 81.1561 55.772 81.5036C49.1274 85.0449 42.5639 83.0028 39.9807 81.4539ZM53.0429 65.4057C52.9987 65.4885 52.9551 65.5705 52.9121 65.6518C52.8259 65.8146 52.7421 65.9743 52.6606 66.1308C52.6131 66.2223 52.5663 66.3127 52.5204 66.4019C52.0905 67.2378 51.0598 67.095 51.0456 66.1552C51.0431 65.9894 51.0419 65.8182 51.042 65.6416C51.0421 65.4848 51.0432 65.3238 51.0454 65.1587C51.0466 65.0721 51.048 64.9844 51.0498 64.8955C51.1471 59.9061 52.1702 51.4631 54.5611 43.1719C54.7538 42.5037 54.9554 41.8364 55.1661 41.1719H41.8222C41.938 41.6831 42.0861 42.3626 42.2528 43.1719C43.2971 48.2421 45.0713 58.4054 44.1936 64.1638C44.1935 64.1643 44.1934 64.1648 44.1933 64.1654C44.1896 64.1897 44.1858 64.214 44.182 64.2382C44.1305 64.5654 44.0703 64.8781 44.0006 65.1745C43.8509 65.812 43.1288 65.9975 42.7037 65.4992C42.5089 65.2708 42.3022 65.0115 42.0861 64.7247C42.0775 64.7133 42.0689 64.7019 42.0603 64.6904C42.0602 64.6902 42.0604 64.6905 42.0603 64.6904C39.5319 61.3199 35.7456 54.2139 34.7429 48.4676C34.6166 47.7441 34.5345 47.0422 34.5046 46.3719L28 49.4053C28.3346 49.9298 28.6927 50.5016 29.0688 51.1136C33.8711 58.9287 41.6124 73.3088 41.0091 79.7386C43.1773 81.0386 48.9772 82.8586 54.8313 79.7386C54.8313 72.6608 57.7584 56.9453 69.4666 50.7053L66.6209 45.0719C66.2158 45.4001 65.7168 45.9215 65.1489 46.5936C61.8105 50.544 56.0891 59.6994 53.0429 65.4057Z" fill="#78A32D"/>
<path fill-rule="evenodd" clip-rule="evenodd" d="M41.0339 78.5853C43.8295 79.589 48.4063 80.1957 53.0166 77.7386C53.0166 70.6608 55.9437 54.9453 67.6519 48.7053L66.0711 45.576C66.2692 45.3768 66.4531 45.2078 66.6208 45.0719L69.4665 50.7053C57.7583 56.9453 54.8313 72.6608 54.8313 79.7386C48.9772 82.8586 43.1773 81.0386 41.0091 79.7386C41.0429 79.3783 41.0505 78.993 41.0339 78.5853ZM33.0393 47.0552C34.2914 53.2106 38.4913 60.6882 40.889 63.4992C41.0385 63.6745 41.2248 63.7651 41.41 63.7813C38.5841 59.6574 34.7526 51.9258 34.5045 46.3719L33.0393 47.0552ZM51.0896 63.6665C51.3347 58.1458 52.5451 49.4365 55.1661 41.1719H52.7464C50.1405 50.2087 49.1594 59.4258 49.2309 64.1552C49.2451 65.095 50.2757 65.2378 50.7057 64.4019C50.8277 64.1646 50.9558 63.9192 51.0896 63.6665Z" fill="#A2CB5B"/>
<path d="M43.6141 70.9929C44.1512 72.9007 43.9832 74.6402 43.2388 74.8783C42.4944 75.1164 41.4555 73.7629 40.9184 71.8552C40.3813 69.9475 40.5494 68.2079 41.2938 67.9698C42.0382 67.7317 43.077 69.0852 43.6141 70.9929Z" fill="#E1FBB5"/>
<path d="M28.1333 43.1386C28.1333 46.4892 25.4172 49.2053 22.0667 49.2053C18.7161 49.2053 16 46.4892 16 43.1386C16 39.7881 18.7161 37.072 22.0667 37.072C25.4172 37.072 28.1333 39.7881 28.1333 43.1386Z" fill="#2E9422"/>
<path d="M36.8 33.6053C36.8 38.3918 32.9198 42.272 28.1333 42.272C23.3469 42.272 19.4667 38.3918 19.4667 33.6053C19.4667 28.8188 23.3469 24.9386 28.1333 24.9386C32.9198 24.9386 36.8 28.8188 36.8 33.6053Z" fill="#2E9422"/>
<path d="M52.4 41.4053C52.4 46.1918 48.5198 50.072 43.7333 50.072C38.9469 50.072 35.0667 46.1918 35.0667 41.4053C35.0667 36.6188 38.9469 32.7386 43.7333 32.7386C48.5198 32.7386 52.4 36.6188 52.4 41.4053Z" fill="#2E9422"/>
<path d="M67.1333 39.672C67.1333 44.4584 63.2531 48.3386 58.4667 48.3386C53.6802 48.3386 49.8 44.4584 49.8 39.672C49.8 34.8855 53.6802 31.0053 58.4667 31.0053C63.2531 31.0053 67.1333 34.8855 67.1333 39.672Z" fill="#2E9422"/>
<path d="M81 42.7053C81 47.2524 77.3138 50.9386 72.7667 50.9386C68.2195 50.9386 64.5333 47.2524 64.5333 42.7053C64.5333 38.1582 68.2195 34.472 72.7667 34.472C77.3138 34.472 81 38.1582 81 42.7053Z" fill="#2E9422"/>
<path d="M74.0667 33.172C74.0667 38.6764 69.6044 43.1386 64.1 43.1386C58.5956 43.1386 54.1333 38.6764 54.1333 33.172C54.1333 27.6675 58.5956 23.2053 64.1 23.2053C69.6044 23.2053 74.0667 27.6675 74.0667 33.172Z" fill="#2E9422"/>
<path d="M63.6667 25.372C63.6667 31.3551 58.8164 36.2053 52.8333 36.2053C46.8502 36.2053 42 31.3551 42 25.372C42 19.3889 46.8502 14.5386 52.8333 14.5386C58.8164 14.5386 63.6667 19.3889 63.6667 25.372Z" fill="#2E9422"/>
<path d="M50.6667 27.972C50.6667 33.9551 45.8164 38.8053 39.8333 38.8053C33.8503 38.8053 29 33.9551 29 27.972C29 21.9889 33.8503 17.1386 39.8333 17.1386C45.8164 17.1386 50.6667 21.9889 50.6667 27.972Z" fill="#2E9422"/>
<path d="M39.4 39.672C39.4 44.4584 35.5198 48.3386 30.7333 48.3386C25.9469 48.3386 22.0667 44.4584 22.0667 39.672C22.0667 34.8855 25.9469 31.0053 30.7333 31.0053C35.5198 31.0053 39.4 34.8855 39.4 39.672Z" fill="#2E9422"/>
<path fill-rule="evenodd" clip-rule="evenodd" d="M18.514 38.2204C16.9909 39.3226 16 41.1149 16 43.1386C16 46.4892 18.7161 49.2053 22.0667 49.2053C23.0563 49.2053 23.9906 48.9683 24.8159 48.5481C25.4614 48.2194 26.0403 47.7785 26.5268 47.2511C27.1344 47.5891 27.787 47.8561 28.4733 48.041C29.1938 48.2351 29.9515 48.3386 30.7333 48.3386C32.221 48.3386 33.6211 47.9638 34.8444 47.3035C35.4355 46.9844 35.9853 46.5986 36.4837 46.1562C36.8516 46.7165 37.2828 47.2316 37.7669 47.6913C39.3209 49.1667 41.4214 50.072 43.7333 50.072C46.4843 50.072 48.9359 48.7903 50.5235 46.7914C50.9599 46.2421 51.3309 45.6386 51.625 44.9927C52.0587 45.5495 52.5588 46.0519 53.1134 46.4881C54.5872 47.6472 56.4462 48.3386 58.4667 48.3386C60.2946 48.3386 61.9904 47.7727 63.3883 46.8066C63.9757 46.4006 64.5106 45.9239 64.9806 45.3888C65.2147 46.0683 65.5353 46.7076 65.9293 47.2935C67.4075 49.4921 69.9182 50.9386 72.7667 50.9386C77.3138 50.9386 81 47.2524 81 42.7053C81 39.2725 78.8992 36.3304 75.913 35.0945C75.2995 34.8406 74.6486 34.6587 73.9709 34.5594C74.034 34.106 74.0667 33.6428 74.0667 33.172C74.0667 32.9635 74.0603 32.7566 74.0477 32.5514C73.756 27.8042 70.1413 23.9557 65.5008 23.303C65.0431 23.2386 64.5754 23.2053 64.1 23.2053C63.883 23.2053 63.6677 23.2122 63.4541 23.2259C63.318 22.5484 63.1186 21.8938 62.8625 21.2685C61.2453 17.32 57.3641 14.5386 52.8333 14.5386C50.3274 14.5386 48.0202 15.3895 46.1848 16.8181C45.6288 17.2508 45.1161 17.7366 44.6544 18.2678C44.0293 17.9567 43.37 17.7042 42.6836 17.5175C41.7754 17.2705 40.8198 17.1386 39.8333 17.1386C35.5917 17.1386 31.9194 19.5764 30.141 23.1273C29.8382 23.7318 29.5904 24.3686 29.4039 25.0311C28.9892 24.9702 28.565 24.9386 28.1333 24.9386C27.8701 24.9386 27.6095 24.9504 27.3522 24.9734C22.9317 25.3682 19.4667 29.0821 19.4667 33.6053C19.4667 34.2337 19.5335 34.8465 19.6606 35.4369C19.8032 36.0997 20.0216 36.7344 20.3063 37.3313C19.656 37.5282 19.0518 37.8313 18.514 38.2204ZM17.8067 36.2873C15.5211 37.7114 14 40.2474 14 43.1386C14 47.5937 17.6116 51.2053 22.0667 51.2053C23.8672 51.2053 25.5299 50.6154 26.8722 49.6183C28.0695 50.0835 29.3716 50.3386 30.7333 50.3386C32.6994 50.3386 34.5412 49.8067 36.1227 48.879C38.0581 50.8497 40.753 52.072 43.7333 52.072C47.0648 52.072 50.0395 50.5447 51.9955 48.1522C53.7903 49.5238 56.0333 50.3386 58.4667 50.3386C60.6499 50.3386 62.68 49.6827 64.3705 48.5572C66.2201 51.2059 69.291 52.9386 72.7667 52.9386C78.4184 52.9386 83 48.357 83 42.7053C83 38.2079 80.0987 34.388 76.0657 33.0154C75.9856 26.7757 71.13 21.6873 64.9862 21.2376C63.2655 16.1784 58.4745 12.5386 52.8333 12.5386C49.4996 12.5386 46.4628 13.8098 44.1811 15.8938C42.8234 15.405 41.3595 15.1386 39.8333 15.1386C34.532 15.1386 29.9815 18.3531 28.0244 22.9392C22.1836 22.9976 17.4667 27.7506 17.4667 33.6053C17.4667 34.5316 17.5847 35.4303 17.8067 36.2873ZM50.6236 35.9798C50.5704 35.9687 50.5173 35.9573 50.4643 35.9455C50.5017 35.9915 50.5386 36.0379 50.575 36.0846C50.591 36.0495 50.6072 36.0146 50.6236 35.9798Z" fill="#1A5B22"/>
<path d="M44.8216 21.813C46.0472 24.2468 44.0814 27.7101 40.4308 29.5485C36.7802 31.387 32.8272 30.9044 31.6015 28.4707C30.3759 26.037 32.3417 22.5737 35.9923 20.7352C39.6429 18.8967 43.5959 19.3793 44.8216 21.813Z" fill="#45BD36"/>
<path fill-rule="evenodd" clip-rule="evenodd" d="M38.2418 23.1951C38.7581 24.1716 38.3851 25.3817 37.4087 25.898C36.8393 26.1991 36.3942 26.578 36.0457 27.0345C35.3755 27.9126 34.1204 28.081 33.2424 27.4108C32.3644 26.7406 32.196 25.4855 32.8662 24.6075C33.5826 23.6689 34.4828 22.9204 35.5389 22.362C36.5153 21.8456 37.7255 22.2186 38.2418 23.1951Z" fill="white"/>
<path d="M26 32.5386C26 33.0909 25.5523 33.5386 25 33.5386C24.4477 33.5386 24 33.0909 24 32.5386C24 31.9863 24.4477 31.5386 25 31.5386C25.5523 31.5386 26 31.9863 26 32.5386Z" fill="#3DB52F"/>
<path d="M30 29.5386C30 30.0909 29.5523 30.5386 29 30.5386C28.4477 30.5386 28 30.0909 28 29.5386C28 28.9863 28.4477 28.5386 29 28.5386C29.5523 28.5386 30 28.9863 30 29.5386Z" fill="#3DB52F"/>
<path d="M32 35.5386C32 36.0909 31.5523 36.5386 31 36.5386C30.4477 36.5386 30 36.0909 30 35.5386C30 34.9863 30.4477 34.5386 31 34.5386C31.5523 34.5386 32 34.9863 32 35.5386Z" fill="#3DB52F"/>
<path d="M27 37.5386C27 38.0909 26.5523 38.5386 26 38.5386C25.4477 38.5386 25 38.0909 25 37.5386C25 36.9863 25.4477 36.5386 26 36.5386C26.5523 36.5386 27 36.9863 27 37.5386Z" fill="#3DB52F"/>
<path d="M23 42.5386C23 43.0909 22.5523 43.5386 22 43.5386C21.4477 43.5386 21 43.0909 21 42.5386C21 41.9863 21.4477 41.5386 22 41.5386C22.5523 41.5386 23 41.9863 23 42.5386Z" fill="#3DB52F"/>
<path d="M28 42.5386C28 43.0909 27.5523 43.5386 27 43.5386C26.4477 43.5386 26 43.0909 26 42.5386C26 41.9863 26.4477 41.5386 27 41.5386C27.5523 41.5386 28 41.9863 28 42.5386Z" fill="#3DB52F"/>
<path d="M33 40.5386C33 41.0909 32.5523 41.5386 32 41.5386C31.4477 41.5386 31 41.0909 31 40.5386C31 39.9863 31.4477 39.5386 32 39.5386C32.5523 39.5386 33 39.9863 33 40.5386Z" fill="#3DB52F"/>
<path d="M37 35.5386C37 36.0909 36.5523 36.5386 36 36.5386C35.4477 36.5386 35 36.0909 35 35.5386C35 34.9863 35.4477 34.5386 36 34.5386C36.5523 34.5386 37 34.9863 37 35.5386Z" fill="#3DB52F"/>
<path d="M44 32.5386C44 33.0909 43.5523 33.5386 43 33.5386C42.4477 33.5386 42 33.0909 42 32.5386C42 31.9863 42.4477 31.5386 43 31.5386C43.5523 31.5386 44 31.9863 44 32.5386Z" fill="#3DB52F"/>
<path d="M41 38.5386C41 39.0909 40.5523 39.5386 40 39.5386C39.4477 39.5386 39 39.0909 39 38.5386C39 37.9863 39.4477 37.5386 40 37.5386C40.5523 37.5386 41 37.9863 41 38.5386Z" fill="#3DB52F"/>
<path d="M37 42.5386C37 43.0909 36.5523 43.5386 36 43.5386C35.4477 43.5386 35 43.0909 35 42.5386C35 41.9863 35.4477 41.5386 36 41.5386C36.5523 41.5386 37 41.9863 37 42.5386Z" fill="#3DB52F"/>
<path d="M44 45.5386C44 46.0909 43.5523 46.5386 43 46.5386C42.4477 46.5386 42 46.0909 42 45.5386C42 44.9863 42.4477 44.5386 43 44.5386C43.5523 44.5386 44 44.9863 44 45.5386Z" fill="#3DB52F"/>
<path d="M48 41.5386C48 42.0909 47.5523 42.5386 47 42.5386C46.4477 42.5386 46 42.0909 46 41.5386C46 40.9863 46.4477 40.5386 47 40.5386C47.5523 40.5386 48 40.9863 48 41.5386Z" fill="#3DB52F"/>
<path d="M47 37.5386C47 38.0909 46.5523 38.5386 46 38.5386C45.4477 38.5386 45 38.0909 45 37.5386C45 36.9863 45.4477 36.5386 46 36.5386C46.5523 36.5386 47 36.9863 47 37.5386Z" fill="#3DB52F"/>
<path d="M54 40.5386C54 41.0909 53.5523 41.5386 53 41.5386C52.4477 41.5386 52 41.0909 52 40.5386C52 39.9863 52.4477 39.5386 53 39.5386C53.5523 39.5386 54 39.9863 54 40.5386Z" fill="#3DB52F"/>
<path d="M51 35.5386C51 36.0909 50.5523 36.5386 50 36.5386C49.4477 36.5386 49 36.0909 49 35.5386C49 34.9863 49.4477 34.5386 50 34.5386C50.5523 34.5386 51 34.9863 51 35.5386Z" fill="#3DB52F"/>
<path d="M49 29.5386C49 30.0909 48.5523 30.5386 48 30.5386C47.4477 30.5386 47 30.0909 47 29.5386C47 28.9863 47.4477 28.5386 48 28.5386C48.5523 28.5386 49 28.9863 49 29.5386Z" fill="#3DB52F"/>
<path d="M49 24.5386C49 25.0909 48.5523 25.5386 48 25.5386C47.4477 25.5386 47 25.0909 47 24.5386C47 23.9863 47.4477 23.5386 48 23.5386C48.5523 23.5386 49 23.9863 49 24.5386Z" fill="#3DB52F"/>
<path d="M51 17.5386C51 18.0909 50.5523 18.5386 50 18.5386C49.4477 18.5386 49 18.0909 49 17.5386C49 16.9863 49.4477 16.5386 50 16.5386C50.5523 16.5386 51 16.9863 51 17.5386Z" fill="#3DB52F"/>
<path d="M57 17.5386C57 18.0909 56.5523 18.5386 56 18.5386C55.4477 18.5386 55 18.0909 55 17.5386C55 16.9863 55.4477 16.5386 56 16.5386C56.5523 16.5386 57 16.9863 57 17.5386Z" fill="#3DB52F"/>
<path d="M54 21.5386C54 22.0909 53.5523 22.5386 53 22.5386C52.4477 22.5386 52 22.0909 52 21.5386C52 20.9863 52.4477 20.5386 53 20.5386C53.5523 20.5386 54 20.9863 54 21.5386Z" fill="#3DB52F"/>
<path d="M60 21.5386C60 22.0909 59.5523 22.5386 59 22.5386C58.4477 22.5386 58 22.0909 58 21.5386C58 20.9863 58.4477 20.5386 59 20.5386C59.5523 20.5386 60 20.9863 60 21.5386Z" fill="#3DB52F"/>
<path d="M55 26.5386C55 27.0909 54.5523 27.5386 54 27.5386C53.4477 27.5386 53 27.0909 53 26.5386C53 25.9863 53.4477 25.5386 54 25.5386C54.5523 25.5386 55 25.9863 55 26.5386Z" fill="#3DB52F"/>
<path d="M60 26.5386C60 27.0909 59.5523 27.5386 59 27.5386C58.4477 27.5386 58 27.0909 58 26.5386C58 25.9863 58.4477 25.5386 59 25.5386C59.5523 25.5386 60 25.9863 60 26.5386Z" fill="#3DB52F"/>
<path d="M60 33.5386C60 34.0909 59.5523 34.5386 59 34.5386C58.4477 34.5386 58 34.0909 58 33.5386C58 32.9863 58.4477 32.5386 59 32.5386C59.5523 32.5386 60 32.9863 60 33.5386Z" fill="#3DB52F"/>
<path d="M63 29.5386C63 30.0909 62.5523 30.5386 62 30.5386C61.4477 30.5386 61 30.0909 61 29.5386C61 28.9863 61.4477 28.5386 62 28.5386C62.5523 28.5386 63 28.9863 63 29.5386Z" fill="#3DB52F"/>
<path d="M67 26.5386C67 27.0909 66.5523 27.5386 66 27.5386C65.4477 27.5386 65 27.0909 65 26.5386C65 25.9863 65.4477 25.5386 66 25.5386C66.5523 25.5386 67 25.9863 67 26.5386Z" fill="#3DB52F"/>
<path d="M72 31.5386C72 32.0909 71.5523 32.5386 71 32.5386C70.4477 32.5386 70 32.0909 70 31.5386C70 30.9863 70.4477 30.5386 71 30.5386C71.5523 30.5386 72 30.9863 72 31.5386Z" fill="#3DB52F"/>
<path d="M67 32.5386C67 33.0909 66.5523 33.5386 66 33.5386C65.4477 33.5386 65 33.0909 65 32.5386C65 31.9863 65.4477 31.5386 66 31.5386C66.5523 31.5386 67 31.9863 67 32.5386Z" fill="#3DB52F"/>
<path d="M59 38.5386C59 39.0909 58.5523 39.5386 58 39.5386C57.4477 39.5386 57 39.0909 57 38.5386C57 37.9863 57.4477 37.5386 58 37.5386C58.5523 37.5386 59 37.9863 59 38.5386Z" fill="#3DB52F"/>
<path d="M64 43.5386C64 44.0909 63.5523 44.5386 63 44.5386C62.4477 44.5386 62 44.0909 62 43.5386C62 42.9863 62.4477 42.5386 63 42.5386C63.5523 42.5386 64 42.9863 64 43.5386Z" fill="#3DB52F"/>
<path d="M66 37.5386C66 38.0909 65.5523 38.5386 65 38.5386C64.4477 38.5386 64 38.0909 64 37.5386C64 36.9863 64.4477 36.5386 65 36.5386C65.5523 36.5386 66 36.9863 66 37.5386Z" fill="#3DB52F"/>
<path d="M72 35.5386C72 36.0909 71.5523 36.5386 71 36.5386C70.4477 36.5386 70 36.0909 70 35.5386C70 34.9863 70.4477 34.5386 71 34.5386C71.5523 34.5386 72 34.9863 72 35.5386Z" fill="#3DB52F"/>
<path d="M77 37.5386C77 38.0909 76.5523 38.5386 76 38.5386C75.4477 38.5386 75 38.0909 75 37.5386C75 36.9863 75.4477 36.5386 76 36.5386C76.5523 36.5386 77 36.9863 77 37.5386Z" fill="#3DB52F"/>
<path d="M79 43.5386C79 44.0909 78.5523 44.5386 78 44.5386C77.4477 44.5386 77 44.0909 77 43.5386C77 42.9863 77.4477 42.5386 78 42.5386C78.5523 42.5386 79 42.9863 79 43.5386Z" fill="#3DB52F"/>
<path d="M72 47.5386C72 48.0909 71.5523 48.5386 71 48.5386C70.4477 48.5386 70 48.0909 70 47.5386C70 46.9863 70.4477 46.5386 71 46.5386C71.5523 46.5386 72 46.9863 72 47.5386Z" fill="#3DB52F"/>
<path d="M74 41.5386C74 42.0909 73.5523 42.5386 73 42.5386C72.4477 42.5386 72 42.0909 72 41.5386C72 40.9863 72.4477 40.5386 73 40.5386C73.5523 40.5386 74 40.9863 74 41.5386Z" fill="#3DB52F"/>
<path d="M69 42.5386C69 43.0909 68.5523 43.5386 68 43.5386C67.4477 43.5386 67 43.0909 67 42.5386C67 41.9863 67.4477 41.5386 68 41.5386C68.5523 41.5386 69 41.9863 69 42.5386Z" fill="#3DB52F"/>
<path d="M58 43.5386C58 44.0909 57.5523 44.5386 57 44.5386C56.4477 44.5386 56 44.0909 56 43.5386C56 42.9863 56.4477 42.5386 57 42.5386C57.5523 42.5386 58 42.9863 58 43.5386Z" fill="#3DB52F"/>
<path d="M55 31.5386C55 32.0909 54.5523 32.5386 54 32.5386C53.4477 32.5386 53 32.0909 53 31.5386C53 30.9863 53.4477 30.5386 54 30.5386C54.5523 30.5386 55 30.9863 55 31.5386Z" fill="#3DB52F"/>
<path d="M65.9721 30.714C65.332 31.5828 64.1089 31.7682 63.2402 31.1281C62.3714 30.4881 62.186 29.265 62.8261 28.3962C63.4661 27.5275 64.6892 27.3421 65.558 27.9821C66.4267 28.6222 66.6121 29.8453 65.9721 30.714Z" fill="#1E7614"/>
<path d="M69.0732 37.1571C68.4331 38.0259 67.21 38.2113 66.3413 37.5712C65.4725 36.9312 65.2871 35.7081 65.9272 34.8393C66.5672 33.9706 67.7903 33.7852 68.6591 34.4252C69.5278 35.0653 69.7132 36.2884 69.0732 37.1571Z" fill="#1E7614"/>
<path d="M71.4009 29.548C70.9209 30.1995 70.0035 30.3386 69.352 29.8585C68.7004 29.3785 68.5614 28.4612 69.0414 27.8096C69.5214 27.158 70.4388 27.019 71.0903 27.499C71.7419 27.9791 71.881 28.8964 71.4009 29.548Z" fill="#1E7614"/>
<path d="M79.2287 44.4567C78.7487 45.1083 77.8313 45.2473 77.1798 44.7673C76.5282 44.2872 76.3892 43.3699 76.8692 42.7183C77.3492 42.0668 78.2666 41.9277 78.9181 42.4078C79.5697 42.8878 79.7087 43.8051 79.2287 44.4567Z" fill="#1E7614"/>
<path d="M65.3051 42.4294C64.665 43.2982 63.4419 43.4836 62.5731 42.8435C61.7044 42.2035 61.519 40.9804 62.159 40.1116C62.7991 39.2429 64.0222 39.0575 64.891 39.6975C65.7597 40.3376 65.9451 41.5607 65.3051 42.4294Z" fill="#1E7614"/>
<path d="M63.269 35.8725C62.6289 36.7413 61.4058 36.9267 60.5371 36.2866C59.6683 35.6466 59.4829 34.4235 60.123 33.5547C60.763 32.686 61.9861 32.5006 62.8549 33.1406C63.7236 33.7807 63.909 35.0038 63.269 35.8725Z" fill="#1E7614"/>
<path d="M58.3051 45.4294C57.665 46.2982 56.4419 46.4836 55.5731 45.8435C54.7044 45.2035 54.519 43.9804 55.159 43.1116C55.7991 42.2429 57.0222 42.0575 57.891 42.6975C58.7597 43.3376 58.9451 44.5607 58.3051 45.4294Z" fill="#1E7614"/>
<path d="M57.1013 37.9752C56.4613 38.8439 55.2381 39.0293 54.3694 38.3893C53.5006 37.7492 53.3152 36.5261 53.9553 35.6574C54.5953 34.7886 55.8185 34.6032 56.6872 35.2433C57.5559 35.8833 57.7413 37.1064 57.1013 37.9752Z" fill="#1E7614"/>
<path d="M75.3049 47.4294C74.6649 48.2982 73.4417 48.4836 72.573 47.8435C71.7042 47.2035 71.5188 45.9803 72.1589 45.1116C72.7989 44.2428 74.0221 44.0574 74.8908 44.6975C75.7596 45.3375 75.945 46.5607 75.3049 47.4294Z" fill="#1E7614"/>
<path d="M51.2287 43.4567C50.7487 44.1083 49.8313 44.2473 49.1798 43.7673C48.5282 43.2872 48.3892 42.3699 48.8692 41.7183C49.3492 41.0668 50.2666 40.9277 50.9181 41.4078C51.5697 41.8878 51.7088 42.8051 51.2287 43.4567Z" fill="#1E7614"/>
</svg>
